<svg width="20" height="20" viewBox="0 0 20 20" fill="none" xmlns="http://www.w3.org/2000/svg">
<path d="M10.11 13.3901L6.22996 17.2701C5.7602 17.7235 5.13282 17.9768 4.47996 17.9768C3.8271 17.9768 3.19972 17.7235 2.72996 17.2701C2.49956 17.0406 2.31675 16.7679 2.19201 16.4676C2.06727 16.1673 2.00306 15.8453 2.00306 15.5201C2.00306 15.1949 2.06727 14.8729 2.19201 14.5726C2.31675 14.2723 2.49956 13.9996 2.72996 13.7701L6.60996 9.89009C6.79826 9.70179 6.90405 9.4464 6.90405 9.18009C6.90405 8.91379 6.79826 8.6584 6.60996 8.47009C6.42165 8.28179 6.16626 8.176 5.89996 8.176C5.63366 8.176 5.37826 8.28179 5.18996 8.47009L1.30996 12.3601C0.528315 13.2109 0.105579 14.3308 0.130033 15.4858C0.154487 16.6409 0.62424 17.7419 1.44119 18.5589C2.25814 19.3758 3.35912 19.8456 4.51421 19.87C5.66929 19.8945 6.78916 19.4717 7.63996 18.6901L11.53 14.8101C11.7183 14.6218 11.8241 14.3664 11.8241 14.1001C11.8241 13.8338 11.7183 13.5784 11.53 13.3901C11.3417 13.2018 11.0863 13.096 10.82 13.096C10.5537 13.096 10.2983 13.2018 10.11 13.3901ZM18.69 1.31009C17.8487 0.474102 16.7109 0.00488281 15.525 0.00488281C14.339 0.00488281 13.2012 0.474102 12.36 1.31009L8.46996 5.19009C8.37672 5.28333 8.30276 5.39402 8.2523 5.51585C8.20184 5.63767 8.17587 5.76824 8.17587 5.90009C8.17587 6.03195 8.20184 6.16252 8.2523 6.28434C8.30276 6.40617 8.37672 6.51686 8.46996 6.61009C8.5632 6.70333 8.67389 6.77729 8.79571 6.82775C8.91753 6.87821 9.0481 6.90419 9.17996 6.90419C9.31182 6.90419 9.44239 6.87821 9.56421 6.82775C9.68603 6.77729 9.79672 6.70333 9.88996 6.61009L13.77 2.73009C14.2397 2.27672 14.8671 2.02335 15.52 2.02335C16.1728 2.02335 16.8002 2.27672 17.27 2.73009C17.5004 2.95958 17.6832 3.2323 17.8079 3.53261C17.9326 3.83292 17.9969 4.15491 17.9969 4.48009C17.9969 4.80528 17.9326 5.12727 17.8079 5.42758C17.6832 5.72789 17.5004 6.00061 17.27 6.23009L13.39 10.1101C13.2962 10.2031 13.2218 10.3137 13.1711 10.4355C13.1203 10.5574 13.0942 10.6881 13.0942 10.8201C13.0942 10.9521 13.1203 11.0828 13.1711 11.2047C13.2218 11.3265 13.2962 11.4371 13.39 11.5301C13.4829 11.6238 13.5935 11.6982 13.7154 11.749C13.8372 11.7998 13.9679 11.8259 14.1 11.8259C14.232 11.8259 14.3627 11.7998 14.4845 11.749C14.6064 11.6982 14.717 11.6238 14.81 11.5301L18.69 7.64009C19.526 6.79887 19.9952 5.66107 19.9952 4.47509C19.9952 3.28912 19.526 2.15131 18.69 1.31009ZM6.82996 13.1701C6.9234 13.2628 7.03421 13.3361 7.15605 13.3859C7.27789 13.4356 7.40835 13.4609 7.53996 13.4601C7.67157 13.4609 7.80203 13.4356 7.92386 13.3859C8.0457 13.3361 8.15652 13.2628 8.24996 13.1701L13.17 8.25009C13.3583 8.06179 13.4641 7.8064 13.4641 7.54009C13.4641 7.27379 13.3583 7.0184 13.17 6.83009C12.9817 6.64179 12.7263 6.536 12.46 6.536C12.1937 6.536 11.9383 6.64179 11.75 6.83009L6.82996 11.7501C6.73623 11.8431 6.66184 11.9537 6.61107 12.0755C6.5603 12.1974 6.53416 12.3281 6.53416 12.4601C6.53416 12.5921 6.5603 12.7228 6.61107 12.8447C6.66184 12.9665 6.73623 13.0771 6.82996 13.1701Z" fill="black"/>
</svg>
