<svg width="932" height="88" viewBox="0 0 932 88" fill="none" xmlns="http://www.w3.org/2000/svg">
<g opacity="0.3">
<path d="M133.474 28.3646L133.476 28.5452C133.437 28.5109 133.399 28.4772 133.358 28.4429C133.398 28.4147 133.434 28.3935 133.474 28.3646Z" fill="#FA402B"/>
</g>
<g opacity="0.3">
<path d="M131.433 24.2453L131.435 24.4259C131.396 24.3915 131.358 24.3579 131.317 24.3236C131.357 24.2954 131.393 24.2741 131.433 24.2453Z" fill="#FA402B"/>
</g>
<g opacity="0.3">
<path d="M142.319 29.7377L142.321 29.9183C142.282 29.884 142.244 29.8503 142.203 29.816C142.243 29.7879 142.279 29.7666 142.319 29.7377Z" fill="#FA402B"/>
</g>
<path d="M218.798 28.7024C218.486 28.5802 218.239 28.4875 204.255 28.4875C204.154 28.4875 194.181 28.4958 193.837 28.5322C193.352 28.5816 192.812 28.7306 192.413 29.0196C191.364 29.7796 190.983 31.2214 190.704 32.429C190.376 33.8502 190.33 36.9026 188.281 36.9026C188.28 36.9026 176.672 36.9026 176.672 36.9026C176.307 36.9026 175.746 36.4907 175.701 36.1035C175.625 35.4705 175.665 34.7015 175.734 34.0706C175.81 33.3683 176.266 32.7332 176.421 32.0453C176.842 30.1771 175.989 29.4226 175.444 29.0642C174.707 28.5809 173.856 28.664 173.182 28.664C173.163 28.664 173.144 28.664 173.126 28.664C172.935 28.664 153.726 28.4271 153.492 28.4271C152.704 28.4271 151.77 28.4292 150.81 28.791C149.074 29.446 148.331 31.0017 147.878 32.3007L147.861 32.348L143.315 50.1064L143.3 50.2135C143.108 51.5461 142.882 52.8911 142.933 54.2429C143.023 56.6699 144.96 59.309 149.826 59.9193C149.832 59.92 153.489 59.92 158.363 59.92C168.111 59.92 182.724 59.9193 182.724 59.9193L183.581 59.9008L177.675 80.4075C177.501 80.9423 176.808 83.3645 177.971 84.8289C178.927 86.0324 181.111 86.3338 182.006 86.3338H182.045C182.244 86.3338 201.96 86.0482 202.134 86.0468L202.319 86.0722C203.037 86.0722 203.92 85.7756 204.75 85.1337C205.615 84.4602 205.97 83.3754 206.218 82.2872L219.415 33.1705C220.197 30.6632 219.987 29.1665 218.798 28.7024ZM182.006 84.2755C181.034 84.2755 180.085 83.672 179.895 83.488C179.852 83.4352 179.825 83.3253 179.806 83.1873C179.791 83.0775 179.78 82.9553 179.778 82.809C179.772 82.2701 179.858 81.5396 180.021 81.0377L185.92 60.6272C185.943 60.5585 185.98 60.4411 186.019 60.3024C186.077 60.0882 186.137 59.817 186.147 59.4978C186.164 58.9685 186.046 58.3389 185.56 57.767C185.344 57.515 184.801 57.4381 184.229 57.4107C184.028 57.4024 183.822 57.3997 183.626 57.3997C183.051 57.3997 182.556 57.4937 182.472 57.4937C182.472 57.4937 150.028 57.4937 150.026 57.4937C147.886 57.4937 145.221 56.0458 145.381 53.5605C145.442 52.6041 145.53 51.6299 145.711 50.6879L150.222 33.0895C150.631 31.9354 151.067 31.3738 151.674 31.1452C152.095 30.9866 152.536 30.9605 152.971 30.9605C153.147 30.9605 153.321 30.9633 153.493 30.9633C154.249 30.9633 159.212 30.9269 160.937 30.9028C162.93 30.8754 164.925 30.9111 166.918 30.8637C168.483 30.8266 170.051 30.8699 171.615 30.8445C172.012 30.8376 172.44 30.863 172.824 30.8507C174.844 30.7854 173.392 33.246 173.243 34.2972C173.112 35.2213 173.106 36.2655 173.449 37.1464C173.921 38.3602 175.062 38.8627 176.286 38.9438C176.418 38.9527 176.547 38.9568 176.673 38.9568C176.691 38.9568 188.276 38.9568 188.282 38.9568C189.131 38.9568 190.055 38.8785 190.742 38.3224C191.437 37.7608 191.848 36.9349 192.219 36.1406C192.825 34.8423 192.973 33.3154 193.396 31.9464L193.406 31.9162C193.641 31.0697 193.758 31.0244 194.049 30.9935C194.523 30.9811 198.828 30.9646 204.092 30.9646C211.631 30.9646 217.191 31.0422 217.191 31.0422C217.134 31.7288 217.012 32.4084 217.012 32.4084L203.816 81.6597L203.814 81.751C203.715 82.1657 203.625 82.5207 203.529 82.7809C203.429 83.0274 203.337 83.2024 203.235 83.2814C203.037 83.4386 202.953 83.6452 202.458 83.6452L202.128 83.7709C202.071 83.7723 185.376 84.2755 182.006 84.2755ZM203.053 83.4839C203.039 83.497 203.026 83.5086 203.011 83.5203C203.026 83.5073 203.04 83.497 203.053 83.4839ZM202.945 83.5718C202.899 83.6034 202.845 83.6315 202.78 83.6521C202.845 83.6315 202.899 83.6034 202.945 83.5718ZM202.759 83.6603C202.686 83.683 202.586 83.6981 202.467 83.6981C202.586 83.6981 202.68 83.683 202.759 83.6603Z" fill="#FA402B"/>
<path d="M139.602 1.15446C139.202 0.614146 138.878 0.345017 134.276 0.156901C131.897 0.0594107 128.614 0.00585938 125.022 0.00585938C121.708 0.00585938 118.329 0.0518587 115.751 0.132872C111.204 0.274302 110.891 0.448687 110.588 0.616892C109.492 1.22518 107.88 3.2258 107.567 3.62056L107.494 3.72561C105.191 7.04852 103.144 10.5561 101.008 13.9889C100.391 14.9796 98.517 18.1302 99.7906 20.4693C100.659 22.0634 103.143 23.1729 103.611 23.1729H129.226C130.626 23.1729 133.237 22.5447 134.995 20.7995C136.135 19.6681 136.678 17.4828 137.113 15.9991C137.183 15.7616 137.25 15.5206 137.316 15.3091L137.18 15.2391C139.302 6.90778 139.495 5.72142 139.495 5.53948C140.175 5.39187 139.73 5.23946 139.774 5.08567C140.088 3.99268 140.594 2.49874 139.602 1.15446ZM134.953 14.6528C134.887 14.867 134.82 15.1684 134.75 15.4073C134.396 16.6163 133.953 18.2146 133.266 18.8964C132.091 20.0615 130.049 20.4267 129.226 20.4267H103.831C103.072 20.4267 102.137 19.6358 101.951 19.298C100.887 17.3578 103.8 14.063 104.7 12.5313C106.153 10.0604 107.584 7.55726 109.373 5.31292C109.806 4.76917 110.958 2.98207 111.679 2.8578C113.454 2.5516 115.353 2.62643 117.146 2.58387C120.975 2.49187 124.805 2.47265 128.635 2.51521C133.697 2.57082 136.767 2.74109 137.812 2.91479C137.827 2.99992 137.83 3.09466 137.824 3.19902C137.806 3.51277 137.699 3.91303 137.559 4.39911C137.509 4.57487 137.459 4.75681 137.416 4.92501L137.41 4.96484C137.314 5.33969 135.105 14.0582 134.953 14.6528Z" fill="#FA402B"/>
<path d="M226.832 5.96653C227.018 5.1152 227.101 4.32635 227.073 3.61852C227.047 2.97728 226.947 2.15753 226.394 1.49707C225.813 0.804335 225.053 0.738426 224.549 0.619653C223.815 0.447328 223.11 0.515983 222.5 0.515983C222.469 0.515983 222.433 0.515983 222.402 0.515983C222.343 0.515983 222.283 0.402702 222.224 0.404075C222.182 0.404761 222.136 0.348464 222.096 0.348464L204.841 0.261272C204.795 0.261272 203.718 0.252346 202.771 0.287361C201.783 0.323061 200.55 0.360822 199.739 1.23824C198.914 2.12938 198.272 4.34214 198.097 4.99025L195.089 15.8467C194.929 16.3376 194.795 16.8457 194.689 17.3606C194.674 17.4333 194.657 17.5089 194.64 17.5878C194.467 18.3842 194.231 19.4752 194.725 20.4494C195.202 21.3913 196.41 22.4802 197.53 22.599C197.614 22.6079 197.811 22.6285 202.216 22.6285C204.026 22.6285 219.932 22.6223 221.009 22.4012C222.234 22.15 222.716 20.8771 222.975 20.1933C223.001 20.1246 223.025 20.0608 223.048 20.0017C223.244 19.5136 223.381 18.9451 223.502 18.4446C223.527 18.3396 223.552 18.2387 223.579 18.1309C223.603 18.0313 223.619 17.9318 223.633 17.8439C223.638 17.8082 223.644 17.7725 223.647 17.7416L226.812 6.02763L226.832 5.96653ZM224.525 3.70571C224.54 4.18012 224.483 4.74858 224.349 5.36511L221.188 17.075C221.156 17.1979 221.141 17.3276 221.119 17.434C221.113 17.467 221.109 17.4999 221.103 17.5281C221.084 17.6256 221.059 17.7279 221.032 17.8336C220.932 18.251 220.817 18.7234 220.691 19.0392C220.662 19.1113 220.632 19.1909 220.595 19.2754C220.536 19.4319 220.43 19.7216 220.331 19.8919C218.687 19.9942 209.926 20.0567 202.217 20.0567C199.274 20.0567 198.101 20.0464 197.811 20.0395C197.59 19.9551 197.134 19.5534 196.997 19.285C196.979 19.2355 196.973 19.1587 196.977 19.066C196.989 18.7879 197.079 18.3684 197.13 18.1371C197.149 18.0478 197.168 17.9613 197.184 17.8817C197.273 17.4526 197.386 17.0283 197.519 16.6198L200.554 5.66857C200.852 4.5488 201.34 3.29172 201.589 2.99925C201.794 2.87979 202.567 2.85164 202.864 2.84134C203.77 2.8077 204.842 2.80289 204.842 2.80289L222.092 2.86194C222.15 2.86194 222.209 2.71913 222.268 2.71776C222.312 2.71707 222.361 2.57427 222.401 2.57427H222.443C222.939 2.57427 223.471 2.75003 223.963 2.86674C224.096 2.89764 224.374 3.03357 224.437 3.08163C224.458 3.1242 224.507 3.29721 224.521 3.68237C224.526 3.69061 224.525 3.69953 224.525 3.70571Z" fill="#FA402B"/>
<path d="M85.7649 9.17134C82.7624 3.67754 78.7795 1.20251 73.591 1.20251H43.5677C37.4328 1.20251 32.1967 2.91821 27.5572 6.76016C24.965 8.90839 22.8436 10.5225 21.0937 12.9989C19.5935 15.119 18.3212 17.8356 20.2616 20.6299C21.5094 22.428 24.6269 23.1722 25.2358 23.1722H81.2166C82.1399 23.1722 85.6172 22.4225 86.7011 20.4246C87.9495 18.1219 88.0972 16.6108 87.7475 14.7359C87.3508 12.5959 86.7201 10.8609 85.7649 9.17134ZM81.8146 20.426H25.2692C24.2847 20.426 22.6647 19.8898 22.2816 19.3385C21.9462 18.8552 21.7659 18.365 21.7489 17.8288C21.7203 16.928 22.1544 15.8989 23.1015 14.5608C24.6759 12.3329 26.6741 10.7902 29.1221 8.76078C33.3016 5.29918 38.0268 3.94942 43.5677 3.94942H73.591C77.8603 3.94942 81.0445 5.85391 83.6095 10.552C85.3519 13.6284 87.4086 20.426 81.8146 20.426Z" fill="#FA402B"/>
<path d="M301.902 28.3598C301.508 28.3502 300.929 28.342 300.189 28.3351C298.843 28.3234 296.915 28.3173 294.616 28.3173C292.087 28.3173 278.209 28.3434 277.483 28.4594C275.282 28.8157 274.772 30.541 274.396 31.8008L274.331 32.0192L268.317 54.8725C267.415 58.2702 265.348 60.0072 261.819 60.1582C261.607 60.1665 261.399 60.2468 261.199 60.2468C261.199 60.2468 261.199 60.2468 261.198 60.2468C259.132 60.2468 257.668 59.7511 256.846 58.9272C255.756 57.8308 255.854 55.8419 256.204 54.4523C256.413 53.6209 256.695 52.7922 256.93 51.9704L256.94 51.9402C261.519 35.2219 262.011 33.4184 262.064 33.2165C262.388 32.0809 262.642 30.5987 261.77 29.2228C261.333 28.5322 260.673 28.4882 257.942 28.4189C256.376 28.379 254.224 28.3598 251.548 28.3598C248.191 28.3598 244.162 28.3942 240.762 28.4505C235.102 28.5438 234.993 28.6015 234.668 28.7697C233.337 29.459 232.955 30.874 232.679 31.9052C232.65 32.0137 232.621 32.1263 232.592 32.2306L227.363 51.9155C226.193 56.2106 225.624 60.2159 225.624 64.1155C225.624 67.4487 226.092 70.3398 227.016 72.6288C229.037 77.8061 233.126 81.5904 239.168 83.705C240.814 84.2913 242.804 84.9318 245.252 85.3211C248.375 85.8195 251.666 86.4045 255.31 86.4045C257.424 86.4045 266.617 86.1601 274.727 82.3964C278.054 80.8537 281.361 78.8497 284.506 76.3128C287.77 73.6792 290.421 70.7531 292.387 67.6163C294.519 64.2123 295.917 60.5386 297.362 56.0739C297.406 55.9277 297.461 55.7801 297.513 55.6311C297.635 55.2803 297.757 54.9178 297.856 54.5278C298.281 52.8059 299.189 49.3931 300.421 44.7925L300.432 44.7643C300.46 44.6435 303.335 32.8643 303.4 32.589C304.023 30.1394 303.844 29.5084 303.612 29.0725C303.261 28.3935 302.691 28.3797 301.902 28.3598ZM300.941 32.429C300.874 32.8279 300.502 33.9745 297.969 44.3723C296.734 48.9784 295.823 52.1468 295.393 53.8838C295.324 54.1598 295.223 54.4701 295.116 54.7825C295.059 54.9473 295.002 55.1285 294.95 55.2919C293.565 59.5726 292.24 63.096 290.244 66.2768C288.431 69.172 285.968 71.9223 282.926 74.3761C279.951 76.7763 276.849 78.7837 273.704 80.1953C272.539 80.7178 271.347 81.1778 270.134 81.5712C265.453 83.0905 260.231 83.74 255.322 83.74C251.812 83.74 248.647 83.2113 245.662 82.7328C243.366 82.3696 241.516 81.6316 240.013 81.1022C234.7 79.2424 231.126 76.0417 229.396 71.5907L229.389 71.5763C228.584 69.597 228.182 67.0711 228.182 64.0668C228.182 60.4006 228.721 56.6424 229.833 52.5615C229.833 52.5615 235.114 32.6844 235.148 32.5691C235.295 32.0233 235.459 31.4143 235.714 31.1486C237.2 31.0573 244.488 30.9248 251.561 30.9248C256.852 30.9248 258.968 31.0037 259.798 31.0607C259.812 31.1514 259.819 31.2482 259.818 31.3532C259.817 31.6656 259.75 32.0446 259.618 32.5183C259.565 32.7112 254.636 50.7016 254.491 51.2289C254.443 51.3916 254.397 51.5578 254.349 51.7198C254.061 52.7084 253.663 53.7348 253.536 54.7557C253.47 55.2961 253.462 55.859 253.466 56.4021C253.466 56.409 253.466 56.4165 253.466 56.422C253.48 57.999 253.933 59.6969 255.061 60.8297C256.378 62.152 258.447 62.9861 261.21 62.9861H261.21C261.443 62.9861 261.684 62.8214 261.933 62.8118C266.612 62.6051 269.594 60.137 270.792 55.6174L276.787 32.7929L276.851 32.5842C277.213 31.3491 277.346 31.0175 277.86 30.9262C278.47 30.885 283.465 30.7181 288.986 30.7181C290.856 30.7181 292.786 30.7181 294.625 30.7181C295.036 30.7181 295.434 30.7229 295.804 30.7312C296.133 30.7387 296.448 30.7483 296.754 30.76C298.861 30.8445 300.293 31.025 301.184 31.0381C301.121 31.3264 301.045 32.1626 300.941 32.429Z" fill="#FA402B"/>
<path d="M128.042 28.6633C127.561 28.6338 127.084 28.5452 126.599 28.5342C124.845 28.4944 123.089 28.5191 121.335 28.5191C117.199 28.5191 111.92 28.6194 108.766 28.6372C107.514 28.6448 106.568 28.7766 106.111 28.7773C102.918 28.7862 101.373 34.0603 101.096 34.9919C101.034 35.2583 100.448 37.0749 94.4429 58.9636C91.7459 68.7951 89.251 77.6008 89.234 77.6599C89.1381 78.0031 89.0299 78.3588 88.9244 78.6979C88.5788 79.8122 88.2223 80.9718 88.1515 82.2879C87.9637 85.7543 91.3676 85.9788 92.4861 86.0495C92.7556 86.0647 93.0298 86.0777 93.3026 86.0777C93.6856 86.0777 110.698 86.2521 110.698 86.2521C110.717 86.2535 110.74 86.2548 110.77 86.2548C111.112 86.2548 112.156 86.1594 113.028 86.1594C113.028 86.1594 116.252 86.0303 117.071 85.4014C118.618 84.2171 119.702 79.7518 120.008 78.4645L130.97 39.4882C131.032 39.2822 131.582 37.4917 131.937 35.4698C132.516 32.1709 132.254 30.2376 131.115 29.3059C130.338 28.6715 129.298 28.6695 128.348 28.6715C128.246 28.6729 128.144 28.6695 128.042 28.6633ZM90.5083 82.6264C90.5083 83.0596 90.8152 83.3692 92.5603 83.4832C92.6318 83.488 93.0713 83.4901 93.7026 83.4901C93.0713 83.4894 92.6998 83.4873 92.6283 83.4818C90.8839 83.3679 90.6852 83.0589 90.6791 82.6264C90.6791 82.5673 90.6873 82.4987 90.6907 82.4376C90.7444 81.4414 91.0417 80.4823 91.3533 79.4758C91.4636 79.1202 91.5792 78.7487 91.6854 78.3725C91.6894 78.3581 93.2774 72.5759 96.8977 59.3763C100.054 47.8648 103.488 35.3551 103.548 35.1354C104.143 33.0112 105.368 31.0752 106.117 31.0731C106.575 31.0717 107.523 31.0669 108.779 31.0594C111.93 31.0422 117.205 31.0827 121.334 31.0827C125.598 31.0827 127.927 31.0923 127.927 31.0923C128.607 31.0971 129.184 31.1067 129.461 31.2358C129.482 31.2729 129.527 31.3683 129.57 31.5496C129.678 32.0102 129.766 33.0387 129.374 35.1801C129.033 37.0413 128.526 38.7275 128.521 38.7446L117.545 77.7944L117.533 77.8425C116.972 80.2118 116.037 82.6326 115.532 83.0143C115.511 83.0301 114.971 83.4235 112.664 83.4235C111.832 83.4235 98.4421 83.4956 94.0333 83.4956C98.4421 83.4956 111.771 83.4235 112.602 83.4235C111.771 83.4235 98.6707 83.545 93.9081 83.545V83.5896C93.9081 83.5896 93.8374 83.5896 93.7469 83.5896C93.1155 83.5896 92.6304 83.5388 92.5589 83.5333C90.8043 83.4194 90.5063 83.0871 90.5063 82.6456C90.5083 82.6401 90.5083 82.6319 90.5083 82.6264ZM128.016 30.2691L128.015 30.598C128.015 30.598 128.015 30.598 128.014 30.598L128.016 30.2691Z" fill="#FA402B"/>
<path d="M83.3101 28.7127C82.1432 28.653 80.9689 28.633 79.7987 28.6454C79.4401 28.6413 72.0357 28.5534 65.9185 28.5534C57.6608 28.5534 57.3962 28.69 57.026 28.8823C56.0728 29.3807 53.7024 31.2262 53.3194 31.5495L53.1343 31.7061C51.2749 33.2762 48.1622 35.9043 42.8233 38.4377C29.9698 44.4876 21.2277 49.542 16.1025 53.8845C9.62947 59.2897 4.98526 65.6005 2.29985 72.6432L2.23317 72.8169C1.53375 74.6431 0.7418 76.7131 0.783303 78.8688C0.828888 81.2532 1.60791 83.1907 2.97681 84.3276C4.31918 85.4419 6.17455 85.6458 7.66592 85.8051C7.8816 85.8291 8.09251 85.8477 8.29458 85.8765C8.6994 85.9273 9.12871 85.9328 9.53149 85.9328L64.3142 85.8442C64.4033 85.847 64.6754 85.8586 65.053 85.8586C67.5201 85.8586 69.2196 85.5181 70.1055 84.8432C71.9322 83.4461 72.5704 81.1022 73.0828 79.2142C73.1596 78.9341 73.2345 78.667 73.3114 78.4006C73.7788 76.7852 74.2333 75.1676 74.6735 73.5803L75.0817 72.1495C75.1592 71.8722 75.2368 71.6772 75.3144 71.3971C75.7478 69.8496 75.4157 68.3502 74.4265 67.1048C73.6726 66.1518 72.6351 65.8484 71.6485 65.8484C71.1696 65.8484 70.7028 65.7344 70.2864 65.7344H41.7762C44.1609 63.6747 49.3481 59.9941 58.6766 56.3492C63.4929 54.4694 68.9515 52.0727 73.8196 48.7827C78.5393 45.593 82.333 40.9436 85.0974 34.8841C85.9179 33.086 86.0404 31.441 85.4512 30.0892C85.0695 29.2187 84.3497 28.7662 83.3101 28.7127ZM82.8576 33.9017C80.2865 39.5383 76.784 43.9006 72.448 46.8308C67.8072 49.967 62.4833 52.0823 57.7867 53.9161C50.3543 56.8195 44.0112 60.3834 39.927 63.8175C39.927 63.8175 36.8402 66.1573 36.6102 67.3416C36.3741 68.5609 37.0613 68.4854 37.0613 68.4854H70.2871C71.1954 68.4854 72.714 67.9897 72.963 69.2722C73.1229 70.0919 72.8065 71.0373 72.5895 71.8276C72.0486 73.7856 71.5084 75.7402 70.9437 77.6942C70.8627 77.9708 70.7845 78.2606 70.7035 78.5606C70.2463 80.2433 69.7741 81.9789 68.6148 82.866C68.3814 83.0479 67.337 83.3809 65.0517 83.3809C64.6557 83.3809 64.3944 83.3665 64.3924 83.3665L64.3638 83.3651L9.53013 83.4591C9.2056 83.4591 8.86881 83.4509 8.59666 83.4173C8.38303 83.3905 8.15987 83.3665 7.93126 83.3411C6.70524 83.2099 5.31524 83.0541 4.54166 82.4115C3.45783 81.5107 3.26529 79.7778 3.24692 78.8235C3.21494 77.1559 3.88443 75.4072 4.53214 73.717L4.59949 73.5378C7.13115 66.8981 11.5297 60.934 17.6796 55.7952C22.5755 51.647 31.3856 46.5693 43.8684 40.6903C49.4998 38.0175 52.7656 35.261 54.7162 33.6133L54.9006 33.4575C55.4122 33.0256 57.2961 31.6031 58.0235 31.1678C58.0684 31.163 58.1262 31.1609 58.199 31.1609C58.2793 31.1609 58.3779 31.163 58.499 31.1671C59.3502 31.1946 61.3294 31.3044 65.9178 31.3044C72.1425 31.3044 82.5725 31.1857 83.0985 31.1857C83.1277 31.1857 83.157 31.1939 83.1862 31.1959C83.2019 31.1966 83.2162 31.2062 83.2291 31.2069C83.3121 31.4307 83.3482 31.6724 83.3509 31.9182C83.3604 32.6549 83.0719 33.4327 82.8576 33.9017Z" fill="#FA402B"/>
<path d="M154.638 22.7953C155.253 22.8571 161.693 22.8839 166.925 22.8839C169.92 22.8839 172.521 22.875 173.403 22.8592C178.088 22.774 178.264 22.406 178.615 22.1966C179.831 21.4675 180.203 20.1178 180.823 17.8803C181.319 16.0815 181.942 13.7822 182.492 11.7535C182.96 10.024 183.403 8.39143 183.677 7.40004L183.689 7.35748C184.15 5.68984 184.847 3.1695 183.653 1.57807C183.011 0.721937 181.755 0.305199 179.812 0.305199C179.441 0.305199 162.054 0.253021 162.054 0.253021C162 0.251648 161.849 0.248901 161.636 0.248901C158.779 0.248901 157.989 0.84483 157.728 1.0405C156.793 1.74353 155.956 3.78397 155.639 4.62637L155.622 4.67923L152.615 14.9432C152.557 15.1279 151.977 17.0441 151.759 18.4673C151.638 19.2465 151.828 20.5674 152.528 21.4813C153.055 22.1685 153.783 22.7081 154.638 22.7953ZM159.251 3.17431C159.357 3.11801 160.029 3.10428 160.681 3.10428C161.342 3.10428 161.98 3.13586 161.985 3.13586L179.073 3.26218H179.128C179.128 3.26218 181.241 3.29857 181.375 3.38645C181.523 3.61645 181.568 4.03318 181.557 4.50279C181.538 5.28958 181.359 6.22329 181.234 6.67573L181.223 6.7128C180.946 7.71036 180.503 9.34505 180.033 11.0779C179.484 13.1032 178.862 15.3977 178.367 17.1896C178.011 18.4769 177.721 19.5239 177.426 19.883C176.301 19.9907 171.678 20.093 164.363 20.093C159.56 20.093 155.576 20.0429 154.891 19.9743C154.84 19.9688 154.802 19.9516 154.762 19.9365C154.68 19.9063 154.609 19.8617 154.545 19.7786C154.364 19.5417 154.292 19.1902 154.276 18.9678C154.271 18.8936 154.272 18.8332 154.277 18.7968C154.473 17.5253 155.043 15.6929 155.05 15.6751L158.04 5.4873C158.425 4.4712 158.99 3.43245 159.251 3.17431Z" fill="#FA402B"/>
<path d="M306.668 17.9565C306.666 17.8425 306.663 17.7299 306.663 17.6159C306.663 5.84154 301.439 0.515259 290.234 0.515259H259.121C253.203 0.515259 248.504 2.32227 244.344 6.54114C241.263 9.6574 239.213 12.1036 237.696 15.0057C237.163 16.0266 235.913 18.4583 237.309 20.5908C238.321 22.141 241.154 22.384 241.999 22.4156L301.598 22.4266L301.628 22.4692C302.495 22.4259 304.621 22.2666 305.547 21.3357C306.708 20.1576 306.685 18.9197 306.668 17.9565ZM303.811 19.7195C303.539 19.9125 302.465 20.4253 301.529 20.4253H242.069C240.931 20.4253 239.596 19.8816 239.366 19.5822C239.206 19.3378 239.125 19.0398 239.126 18.6835C239.131 18.2997 239.24 17.8439 239.451 17.3159C239.564 17.0282 239.696 16.7214 239.876 16.387C241.272 13.7149 243.183 11.3477 246.09 8.41337C249.757 4.69362 253.897 3.26147 259.116 3.26147H290.229C295.123 3.26147 298.578 4.10593 300.786 6.36057C301.716 7.31008 302.465 8.49232 302.969 9.72194C303.588 11.2344 303.908 12.8574 304.055 14.4825C304.158 15.6448 304.183 16.8099 304.202 17.9757C304.212 18.5586 304.247 19.2678 303.811 19.7195Z" fill="#FA402B"/>
<path d="M334.858 34.5271L347.696 60.8201L356.675 60.8572L379.63 35.7684L369.756 85.0328L389.812 85.1124L406.465 2.8125L388.274 2.73904L355.718 37.4368L337.901 2.53445L321.109 2.46716L304.457 84.7678L324.63 84.8481L334.858 34.5271Z" fill="white"/>
<path d="M474.38 18.7968L477.592 2.80769L422.905 2.58594L406.251 84.8858L462.339 85.1124L465.551 68.8871L429.403 68.7415L432.973 51.1054L464.807 51.2351L468.017 35.5982L436.065 35.4677L439.515 18.6561L474.38 18.7968Z" fill="white"/>
<path d="M475.049 84.8851L531.137 85.1124L534.347 68.8871L498.201 68.7415L501.771 51.1039L533.602 51.233L536.814 35.5968L504.864 35.4677L508.311 18.654L543.178 18.7954L546.39 2.80629L491.702 2.58453L475.049 84.8851Z" fill="white"/>
<path d="M550.861 21.2121L574.185 21.3076L561.221 85.0321L581.393 85.1124L594.357 21.3893L617.562 21.4826L621.249 2.90655L554.669 2.63605L550.861 21.2121Z" fill="white"/>
<path d="M679.713 2.66628L669.959 50.8706C668.771 56.4365 666.63 60.6649 663.554 63.5519C660.469 66.443 656.558 67.8779 651.817 67.8586C644.355 67.8277 640.638 64.1657 640.667 56.871C640.674 54.9871 640.911 52.9488 641.39 50.7539L651.027 2.55025L630.737 2.46649L620.862 51.612C620.308 54.3569 620.025 57.1395 620.013 59.9633C619.981 68.1223 622.597 74.5457 627.866 79.2335C633.133 83.9178 640.587 86.2844 650.227 86.3214C660.721 86.364 669.399 83.5327 676.263 77.8398C683.126 72.142 687.63 63.9625 689.772 53.3023L700 2.74661L679.713 2.66628Z" fill="white"/>
<path d="M766.849 9.205C762.085 4.83097 755.544 2.62782 747.223 2.59418L715.856 2.46716L699.201 84.7678L719.491 84.8495L724.247 61.5705L736.84 61.6206C746.557 61.6604 754.592 59.2602 760.948 54.4248C767.308 49.5881 771.395 42.7788 773.215 33.9992C773.692 31.4912 773.938 29.1013 773.943 26.8247C773.98 19.4525 771.612 13.5783 766.849 9.205ZM753.405 32.3899C752.611 36.3884 750.812 39.4799 748.004 41.6646C745.196 43.8512 741.612 44.9332 737.264 44.914L727.352 44.8715L732.35 19.71L742.378 19.7511C746.03 19.7656 748.846 20.5826 750.822 22.198C752.798 23.8142 753.781 26.1134 753.768 29.0931C753.765 30.1174 753.644 31.2145 753.405 32.3899Z" fill="white"/>
<path d="M890.488 86.502C913.396 86.502 931.967 67.7623 931.967 44.6456C931.967 21.5289 913.396 2.78918 890.488 2.78918C867.58 2.78918 849.009 21.5289 849.009 44.6456C849.009 67.7623 867.58 86.502 890.488 86.502Z" fill="#FF9900"/>
<path d="M904.449 46.1835C904.915 46.4066 906.816 45.3294 907.188 45.0706C908.048 44.4802 908.633 43.7861 909.145 42.8805C909.557 42.1534 909.793 41.6145 910.034 40.8167C910.285 39.9874 910.417 39.0104 910.425 38.1419C910.44 36.8752 910.121 35.8097 909.644 34.6954C908.776 32.6673 905.377 30.4594 902.856 29.4762C902.454 29.319 902.051 29.1604 901.645 29.0101C901.585 28.9881 901.149 28.7787 901.149 28.7499L902.965 21.2506L898.433 20.0286L896.562 27.4536L892.983 26.5831L894.759 19.1951L890.208 18.028L888.385 25.5546L885.366 24.8077L879.087 23.2684L877.911 28.2123L880.072 28.6984C881.493 29.0616 882.549 29.5421 882.977 30.1381C883.558 30.9482 883.209 32.2513 883.209 32.2513L878.476 51.4405C878.344 52.3412 878.053 52.9701 877.626 53.2749C876.634 53.9814 875.177 53.3635 875.177 53.3635L872.802 52.7133L870.548 58.0005L879.714 60.391L877.852 67.9912L882.388 69.1501L884.403 61.6234L887.911 62.5393L886.036 70.0454L890.67 71.2647L892.605 63.5972C896.297 64.5316 905.643 65.9638 908.492 57.8329C908.487 57.8323 912.169 49.8806 904.449 46.1835ZM901.313 38.6678C901.219 39.0722 901.06 41.3921 898.744 42.0868C896.064 42.8915 891.931 41.9454 890.615 41.5953C890.585 41.5863 889.508 41.195 889.508 41.193C889.604 40.8044 891.79 32.0522 891.79 32.0522C891.79 32.0522 902.46 33.713 901.313 38.6678ZM892.792 57.5364C890.348 57.3462 885.761 55.9394 885.761 55.9394L888.259 45.948C888.259 45.948 901.781 47.8972 899.9 54.3865C899.9 54.3865 899.416 58.0499 892.792 57.5364Z" fill="white"/>
<path d="M771.436 75.8076L782.086 61.2815C788.99 67.0684 796.715 69.9025 805.494 69.9025C813.452 69.9025 818.133 67.5415 818.952 63.1709C819.889 58.2105 816.261 55.1403 805.377 51.9512C788.637 47.109 781.735 38.1343 784.427 24.671C787.236 10.263 798.939 2.46857 816.495 2.46857C828.784 2.46857 838.732 5.89378 846.69 12.3893L835.923 26.3249C831.124 22.1912 823.049 19.4752 815.328 19.4752C808.77 19.4752 804.678 21.6014 803.859 25.6164C803.039 30.2218 805.848 32.5842 816.732 35.8907C834.291 41.2053 841.665 50.4168 838.853 64.2343C835.926 78.9966 823.525 87.2634 804.679 87.2634C791.215 87.2627 779.629 83.2471 771.436 75.8076Z" fill="white"/>
<path d="M218.453 29.5668C217.984 29.4617 213.862 29.4178 204.255 29.4178C203.442 29.4178 194.521 29.4274 193.919 29.4583C193.527 29.5009 193.168 29.6155 192.952 29.7734C192.173 30.3378 191.859 31.4603 191.604 32.5643C191.553 32.7867 191.505 33.0702 191.455 33.3771C191.327 34.1625 191.167 35.099 190.788 35.9091C190.119 37.3406 189.056 37.5878 188.282 37.5878C188.282 37.5878 176.675 37.5878 176.674 37.5878C175.661 37.5878 174.857 36.8257 174.754 35.8288C174.669 35.0091 174.744 34.1159 174.961 33.3208C175.145 32.6439 175.571 32.0349 175.612 31.3188C175.648 30.6996 175.486 30.0666 174.943 29.7102C174.2 29.2235 173.264 29.3546 172.427 29.3608C170.723 29.3738 169.018 29.3251 167.314 29.3278C166.229 29.3299 165.144 29.3155 164.059 29.3079C159.172 29.2736 153.633 29.2468 153.495 29.2468C152.793 29.2468 151.964 29.2942 151.137 29.6066C149.777 30.1194 149.171 31.3848 148.76 32.5574L148.754 32.5794L144.223 50.2815L144.214 50.3439C144.194 50.4847 144.172 50.6282 144.152 50.7716C143.979 51.9594 143.815 53.0826 143.857 54.2058C143.885 54.9569 144.144 56.008 145.22 57.0234C146.269 58.0107 147.882 58.8702 149.886 58.8702C150.2 58.8702 152.02 58.8702 158.364 58.8702C167.964 58.8702 182.282 58.9265 182.715 58.9265L183.562 58.9396L184.82 58.9252L184.469 60.1479C184.469 60.1479 178.563 80.658 178.554 80.6841C178.326 81.3851 177.909 83.3822 178.692 84.3647C179.382 85.2366 181.217 85.6438 182.008 85.6438H182.047C182.241 85.6438 188.17 85.5593 193.401 85.4399C198.678 85.3183 201.359 85.3005 201.988 85.2861L202.048 85.1261L202.181 84.9572H202.321C202.861 84.9572 203.554 84.7993 204.187 84.3043C204.825 83.8038 205.108 82.9326 205.326 82.0126C205.326 82.0126 205.33 82.0366 205.334 82.0407C205.334 82.0407 218.531 32.9233 218.541 32.8972C218.971 31.507 218.992 30.7174 218.934 30.2986C218.861 29.792 218.666 29.6505 218.453 29.5668ZM218.295 31.1815C218.229 31.6532 218.1 32.2265 217.945 32.7373L204.74 81.902L204.736 81.9247L204.731 81.9501L204.725 81.97C204.456 83.1392 204.199 83.7145 203.804 84.0159C203.799 84.0242 203.776 84.0413 203.762 84.0585C203.493 84.316 203.156 84.5549 202.547 84.572L202.277 84.7815L202.207 84.9558H202.137C202.093 84.9558 201.845 84.7437 201.445 84.756C187.832 85.1007 183.367 84.9558 182 84.9558C180.772 84.9558 179.603 84.3702 179.25 84.029L179.207 84.0255L179.169 83.9844C178.586 83.2511 178.94 81.3253 179.133 80.7122L185.029 60.3298L185.035 60.3127L185.042 60.2941L185.048 60.2729C185.4 59.2458 185.146 58.7137 184.897 58.4041C184.809 58.3649 184.484 58.2558 183.622 58.2558C183.233 58.2558 182.873 58.2194 182.679 58.2345C182.572 58.2427 182.517 58.1761 182.467 58.1761H150.021C148.318 58.1761 146.607 57.5383 145.555 56.4096C144.762 55.5583 144.382 54.6218 144.455 53.4918C144.507 52.6762 144.594 51.3106 144.803 50.624C144.828 50.624 144.883 50.219 145.007 49.7411L145.518 47.7124L147.068 41.648L149.324 32.8464L149.334 32.8011L149.348 32.7592C149.979 30.9763 150.748 30.4867 151.347 30.2616C151.907 30.0501 153.15 30.0213 153.24 30.0219C153.323 30.0226 159.288 29.9801 164.279 29.9423C165.944 29.9299 167.609 29.921 169.272 29.9052C170.293 29.8956 171.314 29.8936 172.335 29.8846C173.242 29.8764 174.614 29.689 174.925 30.8472C175.127 31.5962 174.781 32.3425 174.55 33.04C174.303 33.7911 174.106 34.5724 174.1 35.3681C174.094 36.0787 174.237 36.825 174.619 37.4312C174.976 37.9997 175.941 38.264 176.668 38.264H188.276C188.903 38.264 189.562 38.1157 190.037 37.7965C190.576 37.4347 190.932 36.733 191.275 36.0231L191.334 35.9078C191.53 35.5041 191.682 35.1066 191.786 34.7228C191.849 34.488 191.887 34.2312 191.926 33.958C191.979 33.592 192.033 33.2151 192.157 32.8142C192.226 32.5917 192.294 32.37 192.363 32.1475L192.507 31.6813L192.513 31.6594C192.739 30.8451 193.004 30.1476 193.947 30.0467L193.984 30.0254H194.02C194.544 30.0254 199.223 30.011 204.249 30.011C213.08 30.011 216.279 30.0693 217.399 30.0995L218.433 30.1318L218.295 31.1815Z" fill="white"/>
<path d="M301.879 29.2915C301.494 29.2819 296.922 29.2489 294.616 29.2489C290.11 29.2489 278.464 29.288 277.621 29.38C276.114 29.6272 275.701 30.6495 275.283 32.0658L275.218 32.2711L269.207 55.11C268.201 58.908 265.795 60.8379 261.857 61.0109C261.633 61.0205 261.412 61.0247 261.197 61.0247C258.877 61.0247 257.193 60.5194 256.193 59.5094C255.665 58.978 254.507 57.3825 255.303 54.1859C255.442 53.6284 256.096 51.6813 256.096 51.6813C260.504 35.5803 261.271 33.1863 261.271 32.9666V32.9632L261.225 32.9597C261.508 31.9525 261.682 30.7799 261.012 29.7226C260.954 29.6299 260.905 29.5688 260.556 29.5036C260.063 29.4109 259.229 29.3842 257.922 29.3512C256.38 29.3121 254.233 29.2922 251.549 29.2922C248.226 29.2922 244.196 29.3258 240.771 29.3828C237.497 29.437 235.405 29.4892 235.118 29.5819C235.108 29.586 235.097 29.5929 235.083 29.5997C234.113 30.1009 233.821 31.1891 233.563 32.1489C233.563 32.1489 233.493 32.4091 233.474 32.4798L228.253 52.1571C227.103 56.3767 226.541 60.2873 226.541 64.1183C226.541 67.3588 226.986 70.1043 227.864 72.28L227.866 72.2862L227.868 72.2931C229.811 77.2719 233.714 80.8173 239.464 82.8316C241.155 83.4283 243.044 84.0352 245.391 84.408C245.665 84.4505 245.943 84.4965 246.219 84.5384C249.091 85.0012 252.053 85.4783 255.307 85.4783C257.075 85.4783 266.293 85.2909 274.341 81.5547C277.764 79.966 280.989 77.9599 283.931 75.5892C287.115 73.0235 289.698 70.1716 291.605 67.1233C293.688 63.7997 295.059 60.1884 296.483 55.7876C296.529 55.6386 296.583 55.4869 296.635 55.3441L296.641 55.3297C296.755 55.0008 296.873 54.6576 296.96 54.3054C297.386 52.5821 298.297 49.1658 299.53 44.5618L299.669 44.5439C299.747 44.2261 302.773 32.6446 302.773 32.372V32.3686L302.643 32.3652C303.224 30.0638 302.95 29.6711 302.871 29.5235C302.793 29.3546 302.703 29.3121 301.879 29.2915ZM301.605 33.6717C301.294 34.8663 300.565 37.664 298.865 44.6325L298.863 44.6435L298.86 44.6545C298.295 46.7581 297.791 48.5884 297.386 50.0597C296.902 51.8125 296.521 53.1966 296.294 54.131C296.218 54.4379 296.11 54.7502 295.993 55.0976C295.935 55.2665 295.877 55.4437 295.833 55.5803C294.42 59.9543 293.066 63.5319 291.03 66.7745C289.13 69.8077 286.599 72.6102 283.508 75.1086C280.333 77.6688 277.162 79.6714 274.082 81.0445C272.89 81.5807 271.659 82.06 270.42 82.4602C265.956 83.9054 260.737 84.6771 255.324 84.6771C251.898 84.6771 248.856 84.1917 245.923 83.7207L245.517 83.6562C243.434 83.3273 241.704 82.6978 240.315 82.1993C240.108 82.1279 239.907 82.0497 239.713 81.9851C234.136 80.0298 230.372 76.6499 228.532 71.9333L228.528 71.9196C227.689 69.8373 227.255 67.1899 227.255 64.0668C227.255 60.3168 227.808 56.4721 228.942 52.3164L234.158 32.6679L234.16 32.6611L234.162 32.6542C234.191 32.5471 234.625 30.9385 235.045 30.5005L235.294 30.2403L235.648 30.2183C237.119 30.1277 244.45 29.9931 251.552 29.9931C256.754 29.9931 258.937 30.0686 259.856 30.1318L260.589 30.1819L260.705 30.9145C260.784 31.415 260.721 31.9869 260.502 32.7689C260.423 33.0586 257.691 43.0315 256.218 48.4044L255.377 51.4788L255.375 51.4891L255.373 51.496C255.349 51.5777 255.062 52.5416 254.977 52.8087C254.748 53.5316 254.535 54.2113 254.453 54.8779C254.382 55.4086 254.382 55.973 254.382 56.4041C254.394 57.4491 254.624 58.9279 255.706 60.0154C256.843 61.1592 258.692 61.7373 261.203 61.7373C261.469 61.7373 261.687 61.7345 261.893 61.7249C266.177 61.5375 268.796 59.436 269.892 55.3022L275.889 32.5217L275.896 32.4963L275.906 32.4716L275.966 32.2945C276.327 31.0607 276.595 30.3522 277.702 30.1586L277.746 30.1503L277.794 30.1181C278.392 30.0776 282.516 30.0405 288.978 30.0405H291.821H294.616C296.869 30.0405 298.546 30.1394 299.778 30.1895C300.359 30.2135 300.818 30.2471 301.183 30.2526L302.286 30.276C302.289 30.2739 301.747 33.1286 301.605 33.6717Z" fill="white"/>
<path d="M305.795 17.9743C305.801 17.2589 305.724 16.5346 305.686 15.8831C305.564 13.7767 305.281 11.6711 304.538 9.68761C303.203 6.13057 301.319 3.90545 297.787 2.76852C295.025 1.87943 291.12 1.85129 288.252 1.87325C285.824 1.89179 283.394 1.91239 280.967 1.89317C277.842 1.86845 274.716 1.876 271.59 1.88973C268.818 1.90209 266.046 1.89316 263.273 1.88699C261.909 1.88424 260.544 1.90415 259.179 1.89111C259.16 1.89111 259.139 1.88905 259.119 1.88905C253.166 1.88905 248.814 3.55462 244.996 7.42267C242.014 10.4394 239.996 12.7235 238.51 15.5679C238.014 16.5174 236.986 18.4769 238.077 20.1493C238.687 21.0837 240.575 21.6062 242.014 21.6625L301.59 21.7998C301.59 21.7998 303.814 21.8492 304.887 20.7425C305.604 20.0038 305.785 18.9986 305.795 17.9743ZM304.284 20.5297C304.01 20.724 302.787 21.1125 301.525 21.1125H242.098H242.068C240.823 21.1125 239.123 20.6642 238.636 20.0312L238.615 20.1006L238.596 20.1074C237.957 19.127 238.105 17.7793 239.064 15.9545C240.41 13.3758 242.259 11.0147 245.441 7.79753C247.34 5.87106 249.388 4.5975 251.701 3.72008C253.87 2.89759 256.299 2.5756 259.12 2.5756H290.233C295.736 2.5756 299.194 3.52785 301.445 5.8278C303.954 8.38796 305.119 12.1043 305.119 17.5775C305.119 17.7004 305.121 17.8686 305.123 17.9922C305.262 20.0683 304.284 20.5297 304.284 20.5297Z" fill="white"/>
<path d="M103.712 21.7991H129.225C130.283 21.7991 132.715 21.5341 134.347 19.9138C135.214 19.0536 135.73 17.3571 136.107 16.0513C136.149 15.9078 136.189 15.8041 136.231 15.6805C136.3 15.445 136.365 15.2315 136.431 15.0194L136.443 14.9837C138.529 6.79035 138.859 5.49414 138.908 5.29985C138.948 5.14606 138.992 4.99158 139.04 4.82406C139.329 3.82101 139.656 2.68408 138.938 1.71123C138.85 1.59177 138.806 1.53204 138.36 1.43455C137.667 1.28351 136.399 1.17641 134.244 1.08853C131.88 0.991723 128.604 0.938171 125.022 0.938171C121.726 0.938171 118.357 0.984171 115.779 1.06518C111.947 1.18396 111.23 1.3247 111.032 1.43455C109.329 2.38062 107.997 4.51512 106.947 6.10105C105.158 8.8047 103.554 11.6443 101.842 14.3987L101.79 14.4804C101.555 14.8574 100.932 15.8535 100.568 16.9754C100.173 18.1885 100.185 19.0392 100.6 19.8019C101.221 20.9402 103.156 21.7991 103.712 21.7991ZM102.313 14.7379C103.092 13.4842 103.901 12.2196 104.685 10.9955L104.704 10.966C105.877 9.17132 107.015 7.3547 108.164 5.54495C108.961 4.28993 109.921 2.9484 111.154 2.09021L111.322 1.97349L111.523 1.93917C112.744 1.72839 118.673 1.56362 125.021 1.56362C132.649 1.56362 136.707 1.78607 137.961 1.99409L138.604 2.10119C138.604 2.10119 138.719 2.74793 138.719 2.7493C138.858 3.52785 138.525 4.39771 138.334 5.14606C137.503 8.39071 136.675 11.6367 135.847 14.8828L135.841 14.9054C135.841 14.9054 135.835 14.926 135.834 14.9274C135.381 16.4351 135.074 18.2833 133.913 19.436C132.555 20.783 130.317 21.1112 129.225 21.1112H103.83C103.83 21.1112 103.757 21.1112 103.75 21.1112L103.672 21.2711C102.673 21.0961 101.47 20.3237 101.141 19.7195C100.926 19.3234 100.372 17.861 102.313 14.7379Z" fill="white"/>
<path d="M90.2498 84.6091C91.0465 85.0204 92.0228 85.0829 92.5467 85.1172C92.7964 85.1323 93.0509 85.1391 93.3033 85.1391C93.687 85.1391 110.014 85.3039 110.708 85.3108L110.743 85.1391C110.743 85.1391 110.764 84.962 110.771 84.962C110.874 84.962 111.117 85.1268 111.373 85.111C111.828 85.0842 112.451 85.1433 113.01 85.1426C114.553 85.0787 116.189 84.8556 116.516 84.616C116.909 84.3153 117.95 83.1104 119.121 78.2077C119.121 78.2077 130.083 39.2314 130.089 39.2149C130.149 39.0179 130.687 37.2315 131.03 35.2761C131.529 32.429 131.363 30.5849 130.535 29.9094C129.795 29.3059 128.685 29.2695 127.786 29.3965C126.42 29.5901 124.971 29.4356 123.593 29.437C122.924 29.4377 122.171 29.4411 121.334 29.4411C118.846 29.4411 115.917 29.4803 113.333 29.5139C111.273 29.5407 109.184 29.4679 107.129 29.654C105.911 29.7645 104.898 29.9464 104.052 30.9227C103.224 31.8763 102.72 33.1156 102.309 34.2985C101.448 36.7797 100.819 39.3687 100.118 41.8993C99.1858 45.2655 98.2448 48.6303 97.3202 51.9978C96.6582 54.4097 95.9935 56.8202 95.3321 59.2321C93.072 67.4707 90.9642 74.9486 90.1627 77.7807L90.1226 77.9228C90.0212 78.2832 89.9062 78.6526 89.8055 78.9808C89.4776 80.0401 89.1381 81.1359 89.0734 82.3373C89.0149 83.4434 89.3884 84.1642 90.2498 84.6091ZM89.7756 82.3744C89.8348 81.2608 90.1464 80.255 90.4764 79.1895L90.4784 79.1826C90.5859 78.8366 90.6968 78.4789 90.7988 78.1102C90.8145 78.0532 90.9812 77.4463 91.75 74.6438L96.0098 59.1167C99.166 47.6101 102.599 35.0963 102.66 34.8766C102.969 33.7753 103.456 32.6549 103.998 31.7974C104.706 30.679 105.398 30.1339 106.116 30.1318C106.573 30.1304 107.522 30.1256 108.776 30.1181C111.93 30.1009 117.205 30.0707 121.336 30.0707C124.779 30.0707 126.822 30.0913 127.412 30.1318C127.586 30.1442 127.795 30.1991 128.016 30.2025L128.014 30.7202C128.015 30.7202 128.016 30.7202 128.018 30.7202L128.024 30.2025C128.917 30.2149 129.508 30.2307 129.887 30.4044L130.159 30.5163L130.307 30.771C130.594 31.2804 130.828 32.4853 130.304 35.3434C129.967 37.1848 129.469 38.8373 129.419 39.0014L118.442 78.034L118.433 78.0676C118.116 79.3982 117.084 82.9992 116.093 83.7557C115.8 83.9754 114.966 84.3537 112.667 84.3537C112.417 84.3537 111.008 84.3592 109.059 84.3675C104.59 84.3874 97.1106 84.421 94.0354 84.421C92.7386 84.421 92.6467 84.4155 92.5923 84.4114C91.0553 84.3119 89.683 84.0798 89.7756 82.3744Z" fill="white"/>
<path d="M25.25 21.7991H81.2179C82.0561 21.7991 85.0559 21.2972 85.892 19.7545C87.0732 17.5775 87.1385 16.4618 86.8412 14.8683C86.4853 12.9528 85.9234 11.4438 84.9633 9.74594L84.9599 9.75143L84.9565 9.83931C82.2174 4.82747 78.606 2.57489 73.591 2.57489H73.557H43.5676C37.3266 2.57489 32.4259 4.1519 28.143 7.69795C27.7436 8.02887 27.3551 8.31997 26.9795 8.62617C24.8983 10.324 23.2545 11.6374 21.8462 13.6305C21.3005 14.4015 20.546 15.5501 20.2922 16.7776C20.0507 17.9434 20.2888 18.8647 21.0188 19.9165C22.0115 21.3473 24.7391 21.7991 25.25 21.7991ZM22.3503 14.0417C23.8879 11.8667 25.8113 10.2725 28.0389 8.43119C28.2022 8.29594 28.3682 8.15314 28.5362 8.01377C30.6876 6.23216 32.9818 5.122 35.5508 4.28509C37.975 3.49556 40.5971 3.26213 43.5676 3.26213H73.591C78.3257 3.26213 81.7656 5.36436 84.4143 10.2128C85.3484 11.864 85.8921 13.2789 86.2316 15.1079C86.5336 16.7261 86.6683 17.8123 85.6458 19.6955C85.1389 20.6306 83.2046 21.1125 81.8139 21.1125H25.2881H25.2684C24.1771 21.1125 22.1761 20.6862 21.525 19.749C20.0704 17.6516 21.1256 15.7718 22.3503 14.0417Z" fill="white"/>
<path d="M3.56192 83.6466C4.69201 84.5851 6.39565 84.962 7.76456 84.962H7.78429C7.99997 84.962 8.20408 84.9661 8.40751 84.9902C8.76266 85.0327 9.15727 85.0492 9.5308 85.0492L64.3121 84.962H64.3318L64.3509 84.9407C64.5652 84.9504 64.8081 84.951 65.0523 84.951C68.0201 84.951 69.1427 84.4231 69.5469 84.1141C71.126 82.9065 71.7166 80.7246 72.1915 78.978C72.2643 78.7075 72.3411 78.435 72.4248 78.1466C72.8317 76.7412 73.1202 75.2116 73.6413 73.3346L74.0502 71.899C74.0951 71.7383 74.2094 71.6051 74.2516 71.4788C74.2877 71.3696 74.3809 71.1657 74.4135 71.049C74.7592 69.816 74.5047 68.7147 73.6883 67.6863C73.2569 67.1432 72.6888 66.9283 71.6403 66.9283C71.4111 66.9283 71.1804 67.021 70.9532 67.0286C70.7314 67.0389 70.5069 67.1158 70.2871 67.1158H41.7762H39.2174L41.187 65.398C45.6244 61.6769 51.3973 58.3951 58.3432 55.6826C64.3869 53.3229 69.2808 50.8307 73.3052 48.1113C77.8814 45.0204 81.5663 40.448 84.2585 34.547C84.9654 32.9982 85.0858 31.5907 84.6061 30.4902C84.0469 29.2063 82.2888 29.6224 81.2043 29.516C80.7335 29.47 80.264 29.3512 79.7878 29.3512C79.4741 29.3512 72.0261 29.3725 65.9184 29.3725C59.2495 29.3725 57.7091 29.5194 57.4472 29.6553C56.6273 30.0837 54.3508 31.8722 53.9113 32.243L53.7255 32.4105C51.8321 34.0095 48.6629 36.6911 43.2152 39.276C30.4338 45.2923 21.7598 50.3048 16.6951 54.5958C10.3404 59.9021 5.78809 66.0859 3.1605 72.9769L3.09382 73.1526C2.4257 74.8985 1.66777 76.8978 1.70519 78.8702C1.74601 80.9786 2.40529 82.6868 3.56192 83.6466ZM3.67146 73.3778L3.73881 73.2034C6.32762 66.4093 10.8201 60.3154 17.0917 55.0791C22.0441 50.8843 30.9237 45.7578 43.4785 39.8479C48.9997 37.228 52.2076 34.5196 54.1242 32.9007L54.3086 32.7441C54.8611 32.2773 56.7913 30.8239 57.5533 30.368L57.7261 30.2643L57.9261 30.2423C58.0037 30.2341 58.0908 30.23 58.199 30.23C58.3854 30.23 58.6365 30.241 59.0161 30.2581C59.8931 30.298 76.3233 30.3165 81.9867 30.322C83.1726 30.3227 83.8863 30.3234 83.8863 30.3234L84.0945 30.885C84.2421 31.2845 84.2905 31.7054 84.2728 32.1228C84.2394 32.9137 83.97 33.693 83.6958 34.293C81.0444 40.1054 77.4323 44.5838 72.9609 47.6039C68.1058 50.8863 62.569 53.0469 58.1194 54.7832C50.9673 57.5775 44.7773 60.9903 40.6604 64.4094L40.6135 64.4979L40.5951 64.5309L40.5733 64.5508L37.6879 67.4529L70.2871 67.4583C70.5708 67.4583 70.8375 67.4611 71.0947 67.4432C71.326 67.4281 71.5451 67.4288 71.7567 67.4288C72.0003 67.4288 72.7405 67.4288 73.2229 68.0385C73.9305 68.9296 74.1176 69.7844 73.8305 70.808C73.7515 71.0895 73.674 71.3696 73.5964 71.6525L73.1875 73.1252L73.1787 73.1622C72.7425 74.7351 72.2915 76.3581 71.8309 77.9537C71.7526 78.2249 71.6819 78.5036 71.6016 78.7975L71.1593 78.6753V78.6766C71.1593 78.6814 71.1532 78.6835 71.1532 78.6849L71.5975 78.8139C71.1001 80.6457 70.5837 82.5474 69.1747 83.6253C68.5889 84.0716 67.0866 84.3036 65.053 84.3036C64.6795 84.3036 64.4182 84.2823 64.3604 84.2823H64.3563L64.6543 84.2851V84.2707L9.54441 84.362V84.3675V84.3702C8.86404 84.3702 8.81165 84.3791 8.49051 84.3366C8.283 84.3112 8.0646 84.2974 7.83532 84.2734C6.48138 84.1237 4.94375 83.9555 3.95789 83.1378C2.58899 82.0023 2.34746 79.9639 2.32637 78.8517C2.28963 76.9891 2.99177 75.1532 3.67146 73.3778Z" fill="white"/>
<path d="M154.73 21.8684C155.205 21.9158 160.448 21.9522 166.925 21.9522C170.071 21.9522 172.548 21.9426 173.386 21.9275C177.442 21.8547 177.883 21.5629 178.029 21.4675C178.068 21.4421 178.105 21.418 178.143 21.3954C179.004 20.8798 179.314 19.8678 179.933 17.6296C180.418 15.8714 181.028 13.6222 181.566 11.6367L181.601 11.5076L181.615 11.4568C182.078 9.74733 182.515 8.13324 182.788 7.14872L182.799 7.10684C183.211 5.61633 183.834 3.36375 182.916 2.14031C182.467 1.54027 181.423 1.24505 179.812 1.24505C179.443 1.24505 162.761 1.20248 162.052 1.20248H162.04L162.029 1.19356C161.974 1.1915 161.829 1.18463 161.636 1.18463C160.473 1.18463 158.947 1.28761 158.281 1.7888C157.786 2.16091 157.093 3.39327 156.512 4.93459L156.506 4.95312L153.501 15.2082L153.498 15.2157L153.496 15.224C153.34 15.7224 152.855 17.4141 152.672 18.61C152.59 19.1414 152.718 20.2063 153.259 20.9127C153.509 21.2389 154.034 21.7977 154.73 21.8684ZM153.365 18.6533C153.564 17.3509 154.121 15.5487 154.166 15.4018L157.154 5.22157L157.164 5.18655C157.164 5.18655 157.177 5.15222 157.177 5.15154C157.47 4.37985 157.735 3.52509 158.268 2.88042C158.912 2.10187 159.757 2.16091 160.682 2.16091C161.278 2.16091 161.864 2.32362 161.996 2.32706L179.079 2.5749C179.079 2.5749 179.129 2.5749 179.141 2.5749L179.152 2.43553C181.527 2.49595 181.652 2.51998 181.879 2.66896L182.044 2.73624L182.151 2.88248C182.907 4.0606 182.132 6.89744 182.124 6.92628L182.113 6.96266C181.845 7.92865 181.419 9.49948 180.967 11.1651L180.924 11.3223C180.408 13.2302 179.764 15.6043 179.257 17.4395C178.798 19.0996 178.54 19.988 178.136 20.4782L177.894 20.7734L177.515 20.8098C176.404 20.9162 171.908 21.024 164.364 21.024C160.35 21.024 155.645 20.9855 154.801 20.9004C154.396 20.8592 154.064 20.6731 153.815 20.3477C153.407 19.8149 153.306 19.0364 153.365 18.6533Z" fill="white"/>
<path d="M197.628 21.6728C197.741 21.6824 198.479 21.6975 202.219 21.6975C210.598 21.6975 219.998 21.6323 220.833 21.4881C221.499 21.3515 221.832 20.61 222.115 19.8616L222.13 19.8218C222.148 19.7621 222.172 19.7051 222.196 19.6509C222.365 19.2273 222.494 18.6938 222.607 18.2228C222.632 18.1185 222.657 18.0162 222.684 17.9084C222.699 17.8439 222.711 17.769 222.726 17.6962L222.73 17.6729C222.736 17.6317 222.743 17.5919 222.745 17.5569L222.756 17.5267L222.764 17.4971L225.925 5.79415L225.938 5.75502C226.105 4.98539 226.178 4.27893 226.151 3.65348C226.134 3.13376 226.058 2.5392 225.689 2.09844C225.307 1.64119 224.796 1.52036 224.342 1.41326C223.695 1.26084 223.043 1.23475 222.482 1.22102C222.462 1.22102 222.437 1.22171 222.412 1.22171C222.358 1.22171 222.305 1.22514 222.251 1.22583C222.204 1.22651 222.152 1.23407 222.109 1.23407L204.852 1.18669H204.851C204.664 1.18669 203.682 1.18257 202.815 1.21484C201.953 1.24574 200.977 1.27045 200.423 1.86775C199.884 2.45064 199.318 4.04344 198.996 5.23049L198.995 5.23393L198.993 5.23667L195.986 16.0952L195.981 16.1144L195.974 16.1336C195.827 16.5909 195.701 17.0674 195.601 17.5493C195.587 17.6173 195.571 17.6935 195.554 17.7725L195.551 17.7869C195.4 18.4823 195.212 19.3474 195.556 20.025C195.91 20.7377 196.875 21.5931 197.628 21.6728ZM196.23 17.9393C196.248 17.8521 196.266 17.7697 196.282 17.6942C196.377 17.2363 196.496 16.7852 196.637 16.3499L199.666 5.42204C199.907 4.52746 200.451 2.91887 200.885 2.39915L200.989 2.27419L201.129 2.19112C201.427 2.01536 201.861 1.94122 202.833 1.9062C203.631 1.87668 204.557 1.88217 204.802 1.8808L204.808 1.88904H204.85L222.103 1.91993C222.147 1.91993 222.202 1.88904 222.258 1.88904H222.265C222.312 1.88904 222.365 1.88904 222.407 1.88904H222.414H222.423H222.462H222.467H222.476C223.024 1.88904 223.602 1.94602 224.19 2.08333C224.585 2.17602 224.804 2.23918 224.987 2.37031L225.18 2.51998L225.28 2.73899C225.383 2.9532 225.437 3.24635 225.459 3.6782C225.476 4.23842 225.414 4.8776 225.262 5.57926L225.257 5.60398L225.247 5.62801L222.086 17.3296C222.067 17.4038 222.052 17.4951 222.038 17.583L222.034 17.6084C222.028 17.6468 222.02 17.6839 222.015 17.7168L222.011 17.7368L222.006 17.756C221.983 17.8493 221.959 17.9475 221.935 18.0491L221.934 18.056C221.829 18.5023 221.703 19.0089 221.552 19.3879C221.524 19.4559 221.496 19.53 221.467 19.6083C221.367 19.8726 221.256 20.1459 221.141 20.3498L220.898 20.7912L220.396 20.8228C218.721 20.9272 209.842 20.989 202.226 20.989C198.776 20.989 197.963 20.9752 197.797 20.9718L197.641 20.9677L197.494 20.9114C197.04 20.7384 196.417 20.1658 196.185 19.7106L196.162 19.6639L196.142 19.6145C195.991 19.23 196.054 18.7487 196.23 17.9393Z" fill="white"/>
</svg>
