<svg width="21" height="20" viewBox="0 0 21 20" fill="none" xmlns="http://www.w3.org/2000/svg">
<path d="M7.00011 9C6.80233 9 6.60899 9.05865 6.44454 9.16853C6.28009 9.27841 6.15192 9.43459 6.07623 9.61732C6.00054 9.80004 5.98074 10.0011 6.01932 10.1951C6.05791 10.3891 6.15315 10.5673 6.293 10.7071C6.43286 10.847 6.61104 10.9422 6.80502 10.9808C6.999 11.0194 7.20007 10.9996 7.38279 10.9239C7.56552 10.8482 7.7217 10.72 7.83158 10.5556C7.94146 10.3911 8.00011 10.1978 8.00011 10C8.00011 9.73478 7.89475 9.48043 7.70722 9.29289C7.51968 9.10536 7.26533 9 7.00011 9ZM11.0001 9C10.8023 9 10.609 9.05865 10.4445 9.16853C10.2801 9.27841 10.1519 9.43459 10.0762 9.61732C10.0005 9.80004 9.98074 10.0011 10.0193 10.1951C10.0579 10.3891 10.1532 10.5673 10.293 10.7071C10.4329 10.847 10.611 10.9422 10.805 10.9808C10.999 11.0194 11.2001 10.9996 11.3828 10.9239C11.5655 10.8482 11.7217 10.72 11.8316 10.5556C11.9415 10.3911 12.0001 10.1978 12.0001 10C12.0001 9.73478 11.8948 9.48043 11.7072 9.29289C11.5197 9.10536 11.2653 9 11.0001 9ZM15.0001 9C14.8023 9 14.609 9.05865 14.4445 9.16853C14.2801 9.27841 14.1519 9.43459 14.0762 9.61732C14.0005 9.80004 13.9807 10.0011 14.0193 10.1951C14.0579 10.3891 14.1532 10.5673 14.293 10.7071C14.4329 10.847 14.611 10.9422 14.805 10.9808C14.999 11.0194 15.2001 10.9996 15.3828 10.9239C15.5655 10.8482 15.7217 10.72 15.8316 10.5556C15.9415 10.3911 16.0001 10.1978 16.0001 10C16.0001 9.73478 15.8948 9.48043 15.7072 9.29289C15.5197 9.10536 15.2653 9 15.0001 9ZM11.0001 0C9.68689 0 8.38653 0.258658 7.17328 0.761205C5.96002 1.26375 4.85763 2.00035 3.92904 2.92893C2.05368 4.8043 1.00011 7.34784 1.00011 10C0.991368 12.3091 1.7909 14.5485 3.26011 16.33L1.26011 18.33C1.12135 18.4706 1.02736 18.6492 0.989982 18.8432C0.952608 19.0372 0.973531 19.2379 1.05011 19.42C1.13317 19.5999 1.26781 19.7511 1.43696 19.8544C1.6061 19.9577 1.80211 20.0083 2.00011 20H11.0001C13.6523 20 16.1958 18.9464 18.0712 17.0711C19.9465 15.1957 21.0001 12.6522 21.0001 10C21.0001 7.34784 19.9465 4.8043 18.0712 2.92893C16.1958 1.05357 13.6523 0 11.0001 0ZM11.0001 18H4.41011L5.34011 17.07C5.52636 16.8826 5.6309 16.6292 5.6309 16.365C5.6309 16.1008 5.52636 15.8474 5.34011 15.66C4.0307 14.352 3.21528 12.6305 3.0328 10.7888C2.85032 8.94705 3.31205 7.09901 4.33934 5.55952C5.36662 4.02004 6.8959 2.88436 8.66663 2.34597C10.4374 1.80759 12.34 1.8998 14.0503 2.60691C15.7607 3.31402 17.173 4.59227 18.0465 6.22389C18.9201 7.85551 19.201 9.73954 18.8412 11.555C18.4815 13.3705 17.5034 15.005 16.0736 16.1802C14.6439 17.3554 12.8509 17.9985 11.0001 18Z" fill="black"/>
</svg>
