<svg width="483" height="483" viewBox="0 0 483 483" fill="none" xmlns="http://www.w3.org/2000/svg">
<rect width="483" height="483" fill="#5D2595"/>
<g clip-path="url(#clip0_401_14)">
<path d="M232.533 118.279C231.565 118.287 230.596 118.309 229.627 118.344C156.417 121.013 107.112 184.54 109.354 245.876C109.473 249.128 109.72 252.354 110.083 255.553C96.5116 258.286 80.6594 260.454 69.6254 265.763C67.0834 266.986 64.5661 268.572 62.4343 270.224C60.3025 271.876 58.7635 274.257 57.8113 277.387C56.7953 280.741 56.7275 283.489 57.6087 285.609C58.4909 287.73 60.3184 289.221 63.077 290.06C64.2705 290.422 65.5828 290.66 67.0532 290.781C68.5234 290.901 70.1502 290.908 71.9724 290.81C72.7584 290.771 96.5461 282.279 114.761 278.187C130.085 328.595 176.015 366.747 233.795 364.64C247.97 364.124 262.514 360.943 277.107 354.799C283.253 352.237 286.209 347.765 285.97 341.226C285.714 334.221 282.623 330.748 276.86 330.958C274.367 331.049 271.587 331.774 268.206 333.144C256.215 337.946 244.613 340.552 233.086 340.972C186.642 342.666 150.401 312.986 137.614 272.784C145.3 270.849 153.628 268.746 166.968 265.835C168.574 265.564 170.075 265.21 171.474 264.789C181.19 288.193 203.894 303.846 231.225 302.849C248.982 302.201 263.628 293.249 273.077 282.928C281.805 295.548 293.882 301.656 309.459 301.088C340.768 299.946 357.461 270.187 356.317 238.897C356.166 234.772 355.794 230.698 355.221 226.683C395.48 218.259 403.497 218.697 414.459 213.353C416.995 212.117 419.503 210.517 421.627 208.854C423.75 207.191 425.277 204.802 426.213 201.667C427.212 198.308 427.265 195.56 426.373 193.445C425.48 191.329 423.645 189.846 420.882 189.022C419.687 188.666 418.374 188.436 416.903 188.322C415.432 188.21 413.805 188.211 411.984 188.317C411.327 188.353 373.618 198.134 349.642 203.977C332.023 153.94 282.521 117.877 232.533 118.279ZM232.887 142.576C272.894 142.235 311.728 170.075 326.481 209.411C314.397 212.327 305.633 214.906 286.453 219.228C283.079 207.123 276.174 199.015 263.75 189.896C252.466 181.615 238.816 177.711 223.396 178.274C192.242 179.409 165.279 209.854 166.434 241.456C166.446 241.769 166.475 242.077 166.49 242.389C150.219 245.927 142.396 247.907 133.07 250.202C132.896 248.281 132.767 246.348 132.696 244.401C130.829 193.34 171.947 144.765 230.515 142.629C231.306 142.601 232.097 142.583 232.887 142.576ZM228.277 201.53C248.837 201.853 265.121 218.737 266.038 239.694C266.517 261.344 250.938 278.904 229.131 279.699C206.544 280.523 190.596 262.398 189.845 241.849C189.082 220.989 205.401 202.312 226.274 201.551C226.946 201.527 227.614 201.52 228.277 201.53ZM331.985 231.778C332.322 234.51 332.55 237.275 332.652 240.072C333.261 256.729 326.824 276.916 308.755 277.575C299.877 277.899 290.154 272.174 289.841 263.612L289.059 242.216C309.067 237.684 317.623 235.119 331.985 231.778Z" fill="white"/>
</g>
<defs>
<clipPath id="clip0_401_14">
<rect width="398" height="269" fill="white" transform="translate(43 107)"/>
</clipPath>
</defs>
</svg>
